# xmcd CD database file generated by Grip 3.2.0
# 
# Track frame offsets:
#       150
#       17367
#       33630
#       43585
#       57335
#       68190
#       78535
#       93525
#       104245
#       119320
#       129322
#       140685
# 
# Disc length: 2094 seconds
# 
# Revision: 1
# Processed by: cddbd v1.5.1PL0 Copyright (c) Steve Scherf et al.
# Submitted via: Grip 3.2.0
# 
DISCID=aa082c0c
DTITLE=João Nogueira - Wilson, Geraldo e Noel
DYEAR=1981
DGENRE=Samba
TTITLE0=Louco (Ela é seu mundo)
TTITLE1=De babado
TTITLE2=Bolinha de Papel
TTITLE3=Você vai se quiser
TTITLE4=Você está sumindo
TTITLE5=O maior castigo que eu te dou
TTITLE6=Samba no Meyer
TTITLE7=Positivismo
TTITLE8=Pedro do Pedregulho
TTITLE9=Esta noite eu tive um sonho
TTITLE10=Largo da Lapa
TTITLE11=Feitio de oração
EXTD=
EXTT0=
EXTT1=
EXTT2=
EXTT3=
EXTT4=
EXTT5=
EXTT6=
EXTT7=
EXTT8=
EXTT9=
EXTT10=
EXTT11=
PLAYORDER=
